<svg width="112" height="32" viewBox="0 0 112 32" fill="none" xmlns="http://www.w3.org/2000/svg">
<path d="M26.9862 2.35309C28.3905 2.35309 29.1124 3.11531 29.1124 4.51958C29.1124 5.76333 29.072 7.6088 28.9922 16.1135C29.9948 14.2277 32.1613 12.9444 34.6488 12.9444C39.3028 12.9444 41.7895 16.5151 41.7895 21.0885C41.7895 23.8164 41.8298 26.6249 41.7895 29.8746C41.7492 31.1587 40.7869 31.7604 39.4222 31.7604C38.2591 31.7604 37.2154 31.1587 37.2154 29.8746C37.2952 28.3502 37.4162 23.2146 37.4162 21.4095C37.4162 18.4808 35.9716 16.8765 33.5244 16.8765C31.1571 16.8765 28.9511 18.9623 28.9511 22.0515C28.9511 24.4987 29.0309 28.1098 29.0309 29.9553C29.0309 31.199 28.1082 31.8411 26.7443 31.8411C25.5408 31.8411 24.5778 31.199 24.5778 29.9553C24.5778 28.1897 24.6979 25.903 24.6979 24.6197L24.6576 4.76074C24.6592 3.15564 25.4214 2.35309 26.9862 2.35309Z" fill="white"/>
<path d="M57.1549 13.1847C62.2905 13.947 64.5771 18.3203 64.5771 22.4919C64.5771 27.988 60.4047 32 54.8287 32C49.9747 32 45.7216 28.3897 45.7216 23.0533C45.7216 17.0757 49.6133 13.0234 55.9515 12.9436C56.3927 12.9444 56.7936 12.9847 57.1549 13.1847ZM55.1489 16.7958C52.1 16.9563 50.0941 19.243 50.0941 23.0541C50.0941 26.103 52.4614 28.1493 54.7481 28.1493C57.5961 28.1493 60.2038 25.903 60.2038 22.3322C60.2038 19.4035 58.3987 16.9563 55.1489 16.7958Z" fill="white"/>
<path d="M71.3565 2.6741C72.9616 2.6741 73.6029 3.47665 73.6029 5.16161C73.4827 11.6208 73.402 18.6816 73.402 24.7794C73.402 26.5442 73.5222 28.2695 73.5625 29.8746C73.5222 31.1587 73.0011 31.7604 71.5162 31.8806C70.0321 32.0008 69.069 31.1982 69.0287 28.7914C68.8279 23.6163 68.9884 11.6208 69.0287 4.80027C69.0698 3.35647 70.0732 2.6741 71.3565 2.6741Z" fill="white"/>
<path d="M83.1916 15.4722C83.1512 17.8395 83.1109 19.6447 83.1109 22.7339C83.1109 25.4618 83.8731 28.1098 86.8019 28.1098C90.4525 28.1098 91.576 25.2214 91.6164 21.0086V15.3924C91.6164 13.8679 92.6996 13.1855 93.903 13.1855C95.267 13.1855 96.0695 13.7873 96.0695 15.3117C96.0695 15.8336 95.9897 20.5674 96.0292 24.4987C96.0695 27.2266 96.1897 29.2326 96.23 30.0351C96.2704 31.2386 95.267 31.8 94.1039 31.8C92.9408 31.8 92.2987 31.2781 92.1382 30.2755C92.018 29.5536 92.0576 28.9116 91.9374 28.109C90.7743 30.3957 88.8078 31.9605 85.9598 31.9605C80.9049 31.9605 78.7384 28.3897 78.7384 23.4155C78.7384 21.2087 78.7787 17.5984 78.7787 15.5125C78.7787 13.8679 79.7418 13.2259 81.2259 13.2259C82.5495 13.2251 83.1916 13.9074 83.1916 15.4722Z" fill="white"/>
<path d="M17.8008 31.6979H1.54817C0.693435 31.6979 0 31.0045 0 30.1498V28.9226C0 28.0679 0.693435 27.3745 1.54817 27.3745H17.8008C18.6555 27.3745 19.349 28.0671 19.349 28.9226V30.1498C19.349 31.0045 18.6555 31.6979 17.8008 31.6979Z" fill="#20A264"/>
<path d="M111.356 6.1745C111.356 9.58474 108.591 12.349 105.182 12.349C101.771 12.349 99.0062 9.58474 99.0062 6.1745C99.0062 2.76425 101.771 1.69537e-07 105.182 1.69537e-07C108.592 -0.00079052 111.356 2.76425 111.356 6.1745Z" fill="#F18A66"/>
</svg>
